<?xml version="1.0" encoding="UTF-8" standalone="no"?>
<!DOCTYPE svg PUBLIC "-//W3C//DTD SVG 1.1//EN"
 "http://www.w3.org/Graphics/SVG/1.1/DTD/svg11.dtd">
<!-- Generated by graphviz version 2.30.1 (20131208.1050)
 -->
<!-- Title: %3 Pages: 1 -->
<svg width="816pt" height="622pt"
 viewBox="0.00 0.00 816.00 622.00" xmlns="http://www.w3.org/2000/svg" xmlns:xlink="http://www.w3.org/1999/xlink">
<g id="graph0" class="graph" transform="scale(1 1) rotate(0) translate(4 618)">
<title>%3</title>
<polygon fill="white" stroke="white" points="-4,5 -4,-618 813,-618 813,5 -4,5"/>
<!-- job_worker -->
<g id="node1" class="node"><title>job_worker</title>
<ellipse fill="none" stroke="black" cx="55" cy="-216" rx="55.3303" ry="18"/>
<text text-anchor="middle" x="55" y="-210.4" font-family="Times,serif" font-size="14.00">job_worker</text>
</g>
<!-- queue -->
<g id="node2" class="node"><title>queue</title>
<ellipse fill="none" stroke="black" cx="328" cy="-18" rx="34.1417" ry="18"/>
<text text-anchor="middle" x="328" y="-12.4" font-family="Times,serif" font-size="14.00">queue</text>
</g>
<!-- job_worker&#45;&gt;queue -->
<g id="edge1" class="edge"><title>job_worker&#45;&gt;queue</title>
<path fill="none" stroke="black" d="M43.5069,-198.061C29.6916,-175.381 10.715,-134.891 30.7344,-108 61.3823,-66.8321 211.084,-37.6428 285.64,-25.4067"/>
<polygon fill="black" stroke="black" points="286.327,-28.8413 295.641,-23.7932 285.212,-21.9307 286.327,-28.8413"/>
<text text-anchor="middle" x="61.1328" y="-111.4" font-family="Times,serif" font-size="14.00">push event</text>
</g>
<!-- job_worker&#45;&gt;queue -->
<g id="edge2" class="edge"><title>job_worker&#45;&gt;queue</title>
<path fill="none" stroke="black" d="M60.3333,-197.875C68.3829,-174.608 85.7302,-133.045 113.631,-108 163.778,-62.9844 239.885,-38.8025 286.637,-27.4446"/>
<polygon fill="black" stroke="black" points="287.495,-30.8384 296.432,-25.1484 285.898,-24.0232 287.495,-30.8384"/>
<text text-anchor="middle" x="138.685" y="-111.4" font-family="Times,serif" font-size="14.00">fetch job</text>
</g>
<!-- job_worker&#45;&gt;queue -->
<g id="edge3" class="edge"><title>job_worker&#45;&gt;queue</title>
<path fill="none" stroke="black" d="M76.8793,-199.292C126.241,-163.853 246.179,-77.7434 300.48,-38.7582"/>
<polygon fill="black" stroke="black" points="302.528,-41.5962 308.61,-32.921 298.446,-35.9099 302.528,-41.5962"/>
<text text-anchor="middle" x="223.919" y="-111.4" font-family="Times,serif" font-size="14.00">push log</text>
</g>
<!-- api_server -->
<g id="node3" class="node"><title>api_server</title>
<ellipse fill="lightgrey" stroke="black" cx="328" cy="-216" rx="50.8818" ry="18"/>
<text text-anchor="middle" x="328" y="-210.4" font-family="Times,serif" font-size="14.00">api_server</text>
</g>
<!-- api_server&#45;&gt;queue -->
<g id="edge4" class="edge"><title>api_server&#45;&gt;queue</title>
<path fill="none" stroke="black" d="M328,-197.949C328,-163.922 328,-87.3372 328,-46.2575"/>
<polygon fill="black" stroke="black" points="331.5,-46.151 328,-36.151 324.5,-46.151 331.5,-46.151"/>
<text text-anchor="middle" x="351.919" y="-111.4" font-family="Times,serif" font-size="14.00">push job</text>
</g>
<!-- db -->
<g id="node4" class="node"><title>db</title>
<ellipse fill="none" stroke="black" cx="493" cy="-216" rx="27" ry="18"/>
<text text-anchor="middle" x="493" y="-210.4" font-family="Times,serif" font-size="14.00">db</text>
</g>
<!-- api_server&#45;&gt;db -->
<g id="edge5" class="edge"><title>api_server&#45;&gt;db</title>
<path fill="none" stroke="black" d="M379.303,-216C403.966,-216 432.993,-216 455.544,-216"/>
<polygon fill="black" stroke="black" points="455.728,-219.5 465.728,-216 455.728,-212.5 455.728,-219.5"/>
<text text-anchor="middle" x="422.5" y="-221.8" font-family="Times,serif" font-size="14.00">query job</text>
</g>
<!-- scheduler -->
<g id="node5" class="node"><title>scheduler</title>
<ellipse fill="none" stroke="black" cx="427" cy="-414" rx="48.0563" ry="18"/>
<text text-anchor="middle" x="427" y="-408.4" font-family="Times,serif" font-size="14.00">scheduler</text>
</g>
<!-- scheduler&#45;&gt;api_server -->
<g id="edge6" class="edge"><title>scheduler&#45;&gt;api_server</title>
<path fill="none" stroke="black" d="M423.633,-396.013C418.92,-374.321 409.19,-336.005 394,-306 381.979,-282.254 363.673,-258.179 349.387,-241.066"/>
<polygon fill="black" stroke="black" points="351.888,-238.605 342.742,-233.257 346.557,-243.141 351.888,-238.605"/>
<text text-anchor="middle" x="431.354" y="-309.4" font-family="Times,serif" font-size="14.00">trigger job</text>
</g>
<!-- client -->
<g id="node6" class="node"><title>client</title>
<ellipse fill="none" stroke="black" cx="328" cy="-414" rx="32.2298" ry="18"/>
<text text-anchor="middle" x="328" y="-408.4" font-family="Times,serif" font-size="14.00">client</text>
</g>
<!-- client&#45;&gt;api_server -->
<g id="edge7" class="edge"><title>client&#45;&gt;api_server</title>
<path fill="none" stroke="black" d="M328,-395.949C328,-361.922 328,-285.337 328,-244.258"/>
<polygon fill="black" stroke="black" points="331.5,-244.151 328,-234.151 324.5,-244.151 331.5,-244.151"/>
<text text-anchor="middle" x="360.46" y="-309.4" font-family="Times,serif" font-size="14.00">manage job</text>
</g>
<!-- stream_server -->
<g id="node7" class="node"><title>stream_server</title>
<ellipse fill="none" stroke="black" cx="194" cy="-216" rx="65.295" ry="18"/>
<text text-anchor="middle" x="194" y="-210.4" font-family="Times,serif" font-size="14.00">stream_server</text>
</g>
<!-- client&#45;&gt;stream_server -->
<g id="edge8" class="edge"><title>client&#45;&gt;stream_server</title>
<path fill="none" stroke="black" d="M317.034,-396.96C293.741,-362.89 239.177,-283.08 211.203,-242.162"/>
<polygon fill="black" stroke="black" points="214.03,-240.097 205.497,-233.817 208.252,-244.047 214.03,-240.097"/>
<text text-anchor="middle" x="290.685" y="-309.4" font-family="Times,serif" font-size="14.00">fetch log</text>
</g>
<!-- stream_server&#45;&gt;queue -->
<g id="edge9" class="edge"><title>stream_server&#45;&gt;queue</title>
<path fill="none" stroke="black" d="M205.657,-197.949C229.455,-163.141 283.698,-83.8004 311.259,-43.4869"/>
<polygon fill="black" stroke="black" points="314.275,-45.2765 317.03,-35.046 308.497,-41.3258 314.275,-45.2765"/>
<text text-anchor="middle" x="290.685" y="-111.4" font-family="Times,serif" font-size="14.00">fetch log</text>
</g>
<!-- event_worker -->
<g id="node8" class="node"><title>event_worker</title>
<ellipse fill="none" stroke="black" cx="572" cy="-414" rx="64.1893" ry="18"/>
<text text-anchor="middle" x="572" y="-408.4" font-family="Times,serif" font-size="14.00">event_worker</text>
</g>
<!-- event_worker&#45;&gt;queue -->
<g id="edge10" class="edge"><title>event_worker&#45;&gt;queue</title>
<path fill="none" stroke="black" d="M572.158,-395.833C571.779,-357.655 566.754,-263.891 529,-198 486.946,-124.604 403.858,-65.502 358.799,-37.1798"/>
<polygon fill="black" stroke="black" points="360.399,-34.0541 350.054,-31.7698 356.717,-40.0071 360.399,-34.0541"/>
<text text-anchor="middle" x="576.898" y="-210.4" font-family="Times,serif" font-size="14.00">fetch event</text>
</g>
<!-- event_worker&#45;&gt;api_server -->
<g id="edge11" class="edge"><title>event_worker&#45;&gt;api_server</title>
<path fill="none" stroke="black" d="M557.191,-396.367C537.194,-374.383 499.913,-335.048 464,-306 431.335,-279.579 390.664,-253.787 362.348,-236.828"/>
<polygon fill="black" stroke="black" points="364,-233.739 353.614,-231.643 360.426,-239.758 364,-233.739"/>
<text text-anchor="middle" x="512.364" y="-309.4" font-family="Times,serif" font-size="14.00">post status</text>
</g>
<!-- external_services -->
<g id="node9" class="node"><title>external_services</title>
<ellipse fill="none" stroke="black" cx="730" cy="-216" rx="78.0969" ry="18"/>
<text text-anchor="middle" x="730" y="-210.4" font-family="Times,serif" font-size="14.00">external_services</text>
</g>
<!-- event_worker&#45;&gt;external_services -->
<g id="edge12" class="edge"><title>event_worker&#45;&gt;external_services</title>
<path fill="none" stroke="black" d="M585.471,-396.289C613.328,-361.733 677.389,-282.265 710.056,-241.741"/>
<polygon fill="black" stroke="black" points="712.788,-243.929 716.339,-233.947 707.338,-239.536 712.788,-243.929"/>
<text text-anchor="middle" x="685.364" y="-309.4" font-family="Times,serif" font-size="14.00">post status</text>
</g>
<!-- browser -->
<g id="node10" class="node"><title>browser</title>
<ellipse fill="none" stroke="black" cx="328" cy="-596" rx="42.2153" ry="18"/>
<text text-anchor="middle" x="328" y="-590.4" font-family="Times,serif" font-size="14.00">browser</text>
</g>
<!-- browser&#45;&gt;client -->
<g id="edge13" class="edge"><title>browser&#45;&gt;client</title>
<path fill="none" stroke="black" d="M328,-577.741C328,-546.427 328,-480.021 328,-442.434"/>
<polygon fill="black" stroke="black" points="331.5,-442.207 328,-432.207 324.5,-442.207 331.5,-442.207"/>
</g>
</g>
</svg>
